<svg width="16" height="14" viewBox="0 0 16 14" fill="none" xmlns="http://www.w3.org/2000/svg">
<path fill-rule="evenodd" clip-rule="evenodd" d="M2.18192 1.45441C1.78359 1.45441 1.45466 1.78334 1.45466 2.18168V10.9089C1.45466 11.3072 1.78359 11.6362 2.18192 11.6362H13.8182C14.2165 11.6362 14.5455 11.3072 14.5455 10.9089V2.18168C14.5455 1.78334 14.2165 1.45441 13.8182 1.45441H2.18192ZM0.00012207 2.18168C0.00012207 0.980027 0.980271 -0.00012207 2.18192 -0.00012207H13.8182C15.0198 -0.00012207 16 0.980027 16 2.18168V10.9089C16 12.1105 15.0198 13.0907 13.8182 13.0907H2.18192C0.980271 13.0907 0.00012207 12.1105 0.00012207 10.9089V2.18168Z" fill="#616161"/>
<path fill-rule="evenodd" clip-rule="evenodd" d="M0.131651 1.76437C0.361987 1.43532 0.81546 1.35529 1.14451 1.58563L8.00012 6.38456L14.8557 1.58563C15.1848 1.35529 15.6383 1.43532 15.8686 1.76437C16.0989 2.09342 16.0189 2.5469 15.6899 2.77723L8.41718 7.8681C8.16677 8.04339 7.83347 8.04339 7.58306 7.8681L0.310391 2.77723C-0.0186602 2.5469 -0.0986848 2.09342 0.131651 1.76437Z" fill="#616161"/>
</svg>
