<svg width="22" height="22" viewBox="0 0 22 22" fill="none" xmlns="http://www.w3.org/2000/svg">
<path fill-rule="evenodd" clip-rule="evenodd" d="M21.9972 0.925562C21.9801 0.694987 21.8834 0.46921 21.7071 0.292893C21.4207 0.00643861 21.0036 -0.0698979 20.6476 0.0638839L0.669655 7.05617C0.282654 7.19162 0.0175501 7.54959 0.000836285 7.95926C-0.0158775 8.36894 0.219186 8.74731 0.593867 8.91384L9.2424 12.7576L13.0862 21.4062C13.2527 21.7808 13.6311 22.0159 14.0408 21.9992C14.4504 21.9825 14.8084 21.7174 14.9439 21.3304L21.9368 1.35065C21.9877 1.21426 22.0079 1.06898 21.9972 0.925562ZM17.1943 3.39152L3.71108 8.11063L9.77852 10.8073L17.1943 3.39152ZM11.1927 12.2215L18.6085 4.80567L13.8894 18.289L11.1927 12.2215Z" fill="#616161"/>
</svg>
